<svg width="102" height="21" viewBox="0 0 102 21" fill="none" xmlns="http://www.w3.org/2000/svg">
<g clip-path="url(#clip0)">
<path fill-rule="evenodd" clip-rule="evenodd" d="M4.52333 12.0101L3.53383 13.7198V19.4635H0.33252V0.763277H3.53383V8.91121L7.72464 0.763277H10.926L6.47322 9.09821L10.926 19.4635H7.63733L4.52333 12.0101ZM15.4452 15.1624C15.4452 15.8392 15.5956 16.3156 15.8963 16.5916C16.197 16.8677 16.5996 17.0057 17.1041 17.0057C17.6085 17.0057 18.0111 16.8677 18.3118 16.5916C18.6126 16.3156 18.7629 15.8392 18.7629 15.1624V5.06432C18.7629 4.38756 18.6126 3.91113 18.3118 3.63509C18.0111 3.35904 17.6085 3.22101 17.1041 3.22101C16.5996 3.22101 16.197 3.35904 15.8963 3.63509C15.5956 3.91113 15.4452 4.38756 15.4452 5.06432V15.1624ZM12.2439 5.25132C12.2439 3.73749 12.661 2.57542 13.4953 1.76507C14.3296 0.954729 15.5325 0.549561 17.1041 0.549561C18.6756 0.549561 19.8785 0.954729 20.7128 1.76507C21.5471 2.57542 21.9643 3.73749 21.9643 5.25132V14.9754C21.9643 16.4893 21.5471 17.6513 20.7128 18.4617C19.8785 19.272 18.6756 19.6772 17.1041 19.6772C15.5325 19.6772 14.3296 19.272 13.4953 18.4617C12.661 17.6513 12.2439 16.4893 12.2439 14.9754V5.25132ZM27.2111 5.91918V19.4635H24.3299V0.763277H28.3461L31.6347 11.9567V0.763277H34.4868V19.4635H31.1982L27.2111 5.91918ZM36.7069 5.25132C36.7069 3.73749 37.0998 2.57542 37.8856 1.76507C38.6714 0.954729 39.85 0.549561 41.4216 0.549561C42.9932 0.549561 44.1719 0.954729 44.9577 1.76507C45.7435 2.57542 46.1363 3.73749 46.1363 5.25132V5.83904H43.1096V5.06432C43.1096 4.38756 42.9687 3.91113 42.6877 3.63509C42.4062 3.35904 42.0133 3.22101 41.5089 3.22101C41.0045 3.22101 40.6116 3.35904 40.3302 3.63509C40.0489 3.91113 39.9082 4.38756 39.9082 5.06432C39.9082 5.70547 40.0634 6.27094 40.3739 6.76069C40.6843 7.25045 41.0724 7.71352 41.538 8.14985C42.0037 8.58617 42.5031 9.02254 43.0369 9.45886C43.5703 9.89519 44.07 10.3716 44.5357 10.8881C45.0013 11.4046 45.3892 11.9923 45.6998 12.6512C46.0099 13.3102 46.1654 14.0849 46.1654 14.9754C46.1654 16.4893 45.7626 17.6513 44.9577 18.4617C44.1524 19.272 42.9641 19.6772 41.3925 19.6772C39.8209 19.6772 38.6326 19.272 37.8274 18.4617C37.0222 17.6513 36.6196 16.4893 36.6196 14.9754V13.8267H39.6463V15.1624C39.6463 15.8392 39.7967 16.3111 40.0974 16.5783C40.3981 16.8454 40.8007 16.979 41.3052 16.979C41.8096 16.979 42.212 16.8454 42.513 16.5783C42.8136 16.3111 42.9641 15.8392 42.9641 15.1624C42.9641 14.5213 42.8086 13.9558 42.4985 13.466C42.1879 12.9763 41.8 12.5132 41.3343 12.0769C40.8686 11.6406 40.369 11.2042 39.8355 10.7679C39.3019 10.3315 38.8023 9.85511 38.3367 9.33865C37.871 8.82218 37.483 8.23446 37.1726 7.57549C36.8621 6.91651 36.7069 6.14179 36.7069 5.25132ZM47.3961 0.763277H57.291V3.43473H53.9442V19.4635H50.7429V3.43473H47.3961V0.763277ZM65.7101 19.4635C65.671 19.3388 65.6323 19.223 65.5937 19.1162C65.5546 19.0093 65.5209 18.8757 65.4918 18.7155C65.4627 18.5552 65.4432 18.3503 65.4336 18.101C65.4236 17.8517 65.4191 17.54 65.4191 17.166V14.2274C65.4191 13.3547 65.254 12.7403 64.9243 12.3841C64.5942 12.0279 64.0608 11.8498 63.3237 11.8498H62.2177V19.4635H59.0164V0.763277H63.8475C65.5159 0.763277 66.7237 1.11947 67.4708 1.83186C68.2175 2.54425 68.5913 3.62173 68.5913 5.06432V6.53362C68.5913 8.45707 67.8928 9.72154 66.4959 10.3271C67.3107 10.6298 67.8683 11.1241 68.1693 11.8097C68.4699 12.4954 68.6204 13.328 68.6204 14.3076V17.1927C68.6204 17.6558 68.6395 18.0609 68.6786 18.4082C68.7172 18.7555 68.8141 19.1073 68.9696 19.4635H65.7101ZM62.2177 3.43473V9.17836H63.4692C64.0704 9.17836 64.541 9.03589 64.8807 8.75093C65.2199 8.46596 65.39 7.94949 65.39 7.20148V5.35818C65.39 4.68142 65.259 4.19163 64.9971 3.88888C64.7351 3.58612 64.3227 3.43473 63.7602 3.43473H62.2177ZM74.1 0.763277V15.1891C74.1 15.8659 74.2501 16.3379 74.5511 16.605C74.8517 16.8721 75.2542 17.0057 75.7589 17.0057C76.2632 17.0057 76.6657 16.8721 76.9667 16.605C77.2672 16.3379 77.4178 15.8659 77.4178 15.1891V0.763277H80.4445V15.0021C80.4445 16.516 80.0416 17.678 79.2367 18.4884C78.4314 19.2987 77.2431 19.7039 75.6716 19.7039C74.1 19.7039 72.9114 19.2987 72.1065 18.4884C71.3012 17.678 70.8987 16.516 70.8987 15.0021V0.763277H74.1ZM91.7031 0.763277H101.598V3.43473H98.2512V19.4635H95.0499V3.43473H91.7031V0.763277Z" fill="white"/>
<path fill-rule="evenodd" clip-rule="evenodd" d="M81.9649 10.4813L90.28 0.94043V20.0222L81.9649 10.4813Z" fill="#00A4E5"/>
</g>
<defs>
<clipPath id="clip0">
<rect width="101.86" height="20.99" fill="white"/>
</clipPath>
</defs>
</svg>
