<svg width="80" height="17" viewBox="0 0 80 17" fill="none" xmlns="http://www.w3.org/2000/svg">
    <path d="M3.5397 9.40096L2.76538 10.7393V15.2351H0.260208V0.597463H2.76538V6.97529L6.04487 0.597463H8.55005L5.06558 7.12167L8.55005 15.2351H5.97655L3.5397 9.40096ZM12.0866 11.8684C12.0866 12.3982 12.2042 12.7711 12.4396 12.9872C12.6749 13.2032 12.99 13.3113 13.3847 13.3113C13.7794 13.3113 14.0945 13.2032 14.3298 12.9872C14.5652 12.7711 14.6828 12.3982 14.6828 11.8684V3.96412C14.6828 3.43439 14.5652 3.06145 14.3298 2.84539C14.0945 2.62931 13.7794 2.52127 13.3847 2.52127C12.99 2.52127 12.6749 2.62931 12.4396 2.84539C12.2042 3.06145 12.0866 3.43439 12.0866 3.96412V11.8684ZM9.5814 4.1105C9.5814 2.92554 9.90782 2.01592 10.5607 1.38162C11.2136 0.747323 12.1549 0.430176 13.3847 0.430176C14.6145 0.430176 15.5558 0.747323 16.2087 1.38162C16.8616 2.01592 17.188 2.92554 17.188 4.1105V11.7221C17.188 12.907 16.8616 13.8167 16.2087 14.4509C15.5558 15.0852 14.6145 15.4024 13.3847 15.4024C12.1549 15.4024 11.2136 15.0852 10.5607 14.4509C9.90782 13.8167 9.5814 12.907 9.5814 11.7221V4.1105ZM21.2939 4.63327V15.2351H19.0392V0.597463H22.1821L24.7556 9.35913V0.597463H26.9875V15.2351H24.414L21.2939 4.63327ZM28.7248 4.1105C28.7248 2.92554 29.0323 2.01592 29.6472 1.38162C30.2621 0.747323 31.1844 0.430176 32.4142 0.430176C33.6441 0.430176 34.5665 0.747323 35.1814 1.38162C35.7963 2.01592 36.1037 2.92554 36.1037 4.1105V4.57054H33.7352V3.96412C33.7352 3.43439 33.6249 3.06145 33.405 2.84539C33.1847 2.62931 32.8773 2.52127 32.4826 2.52127C32.0878 2.52127 31.7804 2.62931 31.5602 2.84539C31.34 3.06145 31.23 3.43439 31.23 3.96412C31.23 4.46598 31.3514 4.90861 31.5944 5.29196C31.8373 5.67532 32.141 6.03779 32.5053 6.37933C32.8698 6.72086 33.2605 7.06243 33.6783 7.40396C34.0957 7.7455 34.4868 8.11843 34.8512 8.5227C35.2155 8.92697 35.5191 9.38701 35.7621 9.90282C36.0048 10.4186 36.1265 11.025 36.1265 11.7221C36.1265 12.907 35.8113 13.8167 35.1814 14.4509C34.5512 15.0852 33.6213 15.4024 32.3915 15.4024C31.1617 15.4024 30.2317 15.0852 29.6016 14.4509C28.9715 13.8167 28.6565 12.907 28.6565 11.7221V10.8229H31.025V11.8684C31.025 12.3982 31.1427 12.7676 31.378 12.9767C31.6133 13.1858 31.9284 13.2904 32.3231 13.2904C32.7179 13.2904 33.0328 13.1858 33.2683 12.9767C33.5036 12.7676 33.6213 12.3982 33.6213 11.8684C33.6213 11.3666 33.4997 10.924 33.257 10.5406C33.0139 10.1572 32.7104 9.79477 32.3459 9.45323C31.9815 9.1117 31.5906 8.77013 31.173 8.4286C30.7555 8.08706 30.3646 7.71413 30.0002 7.30986C29.6358 6.9056 29.3321 6.44556 29.0892 5.92974C28.8463 5.41393 28.7248 4.80752 28.7248 4.1105ZM37.0895 0.597463H44.8328V2.68855H42.2138V15.2351H39.7086V2.68855H37.0895V0.597463ZM51.4211 15.2351C51.3905 15.1375 51.3602 15.0469 51.33 14.9633C51.2994 14.8796 51.273 14.7751 51.2503 14.6496C51.2275 14.5241 51.2122 14.3638 51.2047 14.1686C51.1969 13.9735 51.1933 13.7295 51.1933 13.4368V11.1366C51.1933 10.4535 51.0642 9.97251 50.8062 9.69371C50.5478 9.41491 50.1304 9.27549 49.5536 9.27549H48.6882V15.2351H46.183V0.597463H49.9635C51.2691 0.597463 52.2143 0.876274 52.7989 1.4339C53.3832 1.99153 53.6757 2.83492 53.6757 3.96412V5.11422C53.6757 6.6198 53.1291 7.60958 52.036 8.08357C52.6737 8.32055 53.1099 8.7074 53.3455 9.24412C53.5807 9.78085 53.6985 10.4326 53.6985 11.1993V13.4577C53.6985 13.8201 53.7135 14.1373 53.7441 14.4091C53.7743 14.681 53.8501 14.9563 53.9718 15.2351H51.4211ZM48.6882 2.68855V7.1844H49.6675C50.1379 7.1844 50.5062 7.07288 50.772 6.84982C51.0375 6.62677 51.1706 6.2225 51.1706 5.63699V4.19414C51.1706 3.66441 51.0681 3.28102 50.8631 3.04404C50.6581 2.80705 50.3354 2.68855 49.8952 2.68855H48.6882ZM57.9866 0.597463V11.8894C57.9866 12.4191 58.104 12.7885 58.3396 12.9976C58.5748 13.2067 58.8897 13.3113 59.2847 13.3113C59.6794 13.3113 59.9943 13.2067 60.2298 12.9976C60.4651 12.7885 60.5828 12.4191 60.5828 11.8894V0.597463H62.9514V11.743C62.9514 12.9279 62.6361 13.8376 62.0062 14.4719C61.376 15.1061 60.4462 15.4233 59.2164 15.4233C57.9866 15.4233 57.0564 15.1061 56.4265 14.4719C55.7963 13.8376 55.4814 12.9279 55.4814 11.743V0.597463H57.9866ZM71.7618 0.597463H79.505V2.68855H76.886V15.2351H74.3808V2.68855H71.7618V0.597463Z" fill="#171819"/>
    <path d="M64.1412 8.20438L70.6481 0.736206V15.6726L64.1412 8.20438Z" fill="#00A4E5"/>
</svg>
